<svg width="20" height="20" viewBox="0 0 20 20" fill="none" xmlns="http://www.w3.org/2000/svg">
<path d="M18.1562 2.81204C17.9837 2.66906 17.7757 2.57542 17.5543 2.54106C17.3329 2.50669 17.1063 2.53288 16.8986 2.61684L2.56501 8.40324C2.33339 8.49843 2.13619 8.6618 1.9996 8.87169C1.86301 9.08158 1.79349 9.32804 1.80026 9.57837C1.80703 9.8287 1.88977 10.071 2.03751 10.2732C2.18524 10.4754 2.39098 10.6279 2.62741 10.7104L5.72021 11.784L7.39621 17.3248C7.39941 17.336 7.40981 17.3432 7.41461 17.3536C7.43188 17.3978 7.4571 17.4385 7.48901 17.4736C7.53751 17.5278 7.6001 17.5674 7.66981 17.588C7.67781 17.5912 7.68341 17.5984 7.69141 17.6H7.69621L7.69861 17.6008C7.7605 17.6142 7.82482 17.6108 7.88501 17.5912C7.89141 17.5896 7.89781 17.5896 7.90501 17.5872C7.96281 17.567 8.01511 17.5336 8.05781 17.4896C8.06261 17.484 8.07061 17.4832 8.07541 17.4784L10.4858 14.8176L14.0034 17.5416C14.217 17.7088 14.4802 17.7992 14.7514 17.7992C15.3386 17.7992 15.845 17.388 15.9658 16.8144L18.5754 4.00004C18.6197 3.7825 18.6041 3.55703 18.5302 3.34766C18.4564 3.1383 18.3271 2.9529 18.1562 2.81124V2.81204ZM8.27061 12.836L7.70501 15.5856L6.52501 11.6832L12.377 8.63524L8.37941 12.6336C8.32406 12.689 8.28621 12.7594 8.27061 12.836ZM15.1818 16.6536C15.1668 16.7262 15.1334 16.7936 15.0848 16.8495C15.0361 16.9054 14.974 16.9479 14.9042 16.9728C14.8362 16.999 14.7624 17.0071 14.6903 16.9961C14.6182 16.9852 14.5502 16.9556 14.493 16.9104L10.6826 13.9592C10.603 13.8978 10.5031 13.8685 10.4028 13.8774C10.3026 13.8863 10.2094 13.9327 10.1418 14.0072L8.46421 15.856L9.02901 13.1144L14.7802 7.36244C14.8476 7.29487 14.8885 7.20545 14.8958 7.11031C14.903 7.01518 14.8759 6.9206 14.8196 6.84364C14.7632 6.76669 14.6811 6.71242 14.5882 6.69063C14.4954 6.66885 14.3977 6.68098 14.313 6.72484L6.02261 11.0432L2.88901 9.95364C2.80593 9.9262 2.73346 9.87355 2.6817 9.803C2.62994 9.73246 2.60146 9.64753 2.60021 9.56004C2.59623 9.47178 2.61981 9.38446 2.66769 9.31021C2.71557 9.23595 2.78537 9.17844 2.86741 9.14564L17.1986 3.35924C17.2721 3.32804 17.3527 3.31795 17.4316 3.3301C17.5105 3.34226 17.5844 3.37618 17.645 3.42804C17.7053 3.47683 17.7509 3.54142 17.7766 3.6146C17.8023 3.68778 17.8071 3.76666 17.7906 3.84244L15.1818 16.6544V16.6536Z" fill="#0F805D"/>
</svg>
