<svg width="20" height="16" viewBox="0 0 20 16" fill="none" xmlns="http://www.w3.org/2000/svg">
<g clip-path="url(#clip0_22168_511)">
<path d="M1.3999 5.17554C1.3999 4.67259 1.74307 4.40138 2.4294 4.36193L5.07414 4.37673C5.25164 4.37673 5.36998 4.45069 5.42914 4.59862C5.70131 5.33827 6.00602 5.97683 6.34327 6.5143C6.68052 7.05178 7.12131 7.67061 7.66564 8.37081C7.71297 8.45957 7.78989 8.50395 7.89639 8.50395C7.97922 8.50395 8.04431 8.46943 8.09164 8.4004L8.14489 8.23767L8.16264 5.6785C8.16264 5.50099 8.11235 5.38264 8.01176 5.32347C7.91118 5.2643 7.72481 5.21992 7.45264 5.19034C7.23964 5.16075 7.13314 5.05227 7.13314 4.86489C7.13314 4.82545 7.13906 4.79586 7.15089 4.77614C7.39939 4.13511 8.10939 3.8146 9.28089 3.8146L10.2749 3.7998C10.7245 3.7998 11.0973 3.89349 11.3931 4.08087C11.689 4.26825 11.8369 4.5641 11.8369 4.96844V8.32643C11.9197 8.37574 11.9966 8.4004 12.0676 8.4004C12.2451 8.4004 12.399 8.31164 12.5291 8.13412C13.8308 6.61539 14.5349 5.59961 14.6414 5.08679C14.6414 5.07693 14.6532 5.05227 14.6769 5.01282C14.7597 4.86489 14.8958 4.73669 15.0851 4.62821C15.2745 4.51973 15.4401 4.44576 15.5821 4.40631C15.6295 4.38659 15.6827 4.37673 15.7419 4.37673H18.4931L18.6706 4.39152C18.9073 4.39152 19.0907 4.48521 19.2209 4.67259C19.2682 4.73176 19.3007 4.79586 19.3185 4.86489C19.3362 4.93393 19.3481 5.00296 19.354 5.07199C19.3599 5.14103 19.3629 5.18048 19.3629 5.19034V5.29389C19.28 5.69823 19.07 6.12969 18.7327 6.58827C18.3955 7.04685 17.9665 7.54241 17.4459 8.07495C16.9252 8.6075 16.5998 8.9576 16.4696 9.12525C16.3631 9.24359 16.3099 9.35207 16.3099 9.45069C16.3099 9.52959 16.3572 9.61835 16.4519 9.71696L19.0434 12.4389C19.1854 12.5966 19.2564 12.7692 19.2564 12.9566C19.2564 13.1834 19.1499 13.3708 18.9369 13.5187C18.7239 13.6667 18.4695 13.7505 18.1736 13.7702L17.8719 13.785H15.1739C15.162 13.785 15.1384 13.7875 15.1029 13.7924C15.0674 13.7973 15.0437 13.7998 15.0319 13.7998C14.7715 13.7998 14.529 13.7061 14.3041 13.5187C14.2213 13.4398 13.6651 12.858 12.6356 11.7732C12.5765 11.7041 12.4936 11.64 12.3871 11.5809C12.3398 11.7387 12.2777 11.9655 12.2008 12.2613C12.1238 12.5572 12.0676 12.7692 12.0321 12.8974L11.9789 13.1489C11.8605 13.4941 11.612 13.7012 11.2334 13.7702L10.9849 13.785H9.24539C8.26322 13.785 7.28402 13.4103 6.30777 12.6608C5.33152 11.9112 4.4529 10.9423 3.6719 9.75395C2.8909 8.56558 2.16315 7.18245 1.48865 5.60454C1.42949 5.47633 1.3999 5.33334 1.3999 5.17554ZM12.0676 9.00691C11.8191 9.00691 11.5943 8.9502 11.3931 8.83679C11.192 8.72338 11.0914 8.56805 11.0914 8.37081V4.96844C11.0914 4.77121 11.0322 4.63067 10.9139 4.54685C10.7955 4.46302 10.5885 4.42111 10.2926 4.42111L9.28089 4.45069C8.77205 4.45069 8.38747 4.52466 8.12714 4.67259C8.6478 4.87969 8.90814 5.21499 8.90814 5.6785V8.28205C8.88447 8.5286 8.76614 8.73324 8.55314 8.89596C8.34014 9.05868 8.10347 9.14004 7.84314 9.14004C7.48814 9.14004 7.21597 8.99704 7.02664 8.71105C6.10364 7.54734 5.41731 6.4428 4.96765 5.39744L4.8079 5.01282L2.44715 4.99803C2.29332 4.99803 2.20753 5.00543 2.18978 5.02022C2.17203 5.03501 2.16315 5.07693 2.16315 5.14596C2.16315 5.23472 2.17498 5.3284 2.19865 5.42702L2.5714 6.25543C3.5654 8.39547 4.64519 10.0819 5.81077 11.3146C6.97635 12.5473 8.12122 13.1637 9.24539 13.1637H11.0204C11.0914 13.1637 11.1446 13.1465 11.1801 13.1119C11.2156 13.0774 11.2452 13.0109 11.2689 12.9122L11.3044 12.7643L11.6416 11.4625C11.7363 11.285 11.8191 11.1667 11.8901 11.1075C12.0203 10.999 12.1741 10.9448 12.3516 10.9448C12.6356 10.9448 12.9255 11.0878 13.2214 11.3738L14.7301 12.9714C14.8248 13.0996 14.9254 13.1637 15.0319 13.1637H17.9606C18.3156 13.1637 18.4931 13.0897 18.4931 12.9418C18.4931 12.8925 18.4754 12.8432 18.4399 12.7939L15.8661 10.1164C15.665 9.90927 15.5644 9.68738 15.5644 9.45069C15.5644 9.21401 15.659 8.98718 15.8484 8.77022C16.0022 8.57298 16.301 8.24507 16.7447 7.78649C17.1885 7.32791 17.576 6.89892 17.9074 6.49951C18.2387 6.1001 18.4576 5.73767 18.5641 5.41223L18.6174 5.21992C18.6055 5.2002 18.5996 5.16815 18.5996 5.12377C18.5996 5.07939 18.5937 5.04241 18.5819 5.01282H15.7951C15.6176 5.07199 15.4756 5.16075 15.3691 5.27909L15.2626 5.56016C14.9668 6.24063 14.1917 7.29093 12.9374 8.71105C12.6889 8.90829 12.399 9.00691 12.0676 9.00691Z" fill="#0F805D"/>
</g>
<defs>
<clipPath id="clip0_22168_511">
<rect width="19.2" height="15.0857" fill="white" transform="translate(0.399902 0.799805)"/>
</clipPath>
</defs>
</svg>
