<svg width="20" height="20" viewBox="0 0 20 20" fill="none" xmlns="http://www.w3.org/2000/svg">
<path d="M12.5649 9.75249L8.9649 7.35249C8.91978 7.32244 8.86737 7.30518 8.81322 7.30254C8.75908 7.2999 8.70523 7.31198 8.6574 7.33749C8.60946 7.36243 8.56937 7.40016 8.54157 7.44649C8.51377 7.49283 8.49935 7.54596 8.4999 7.59999V12.4C8.49935 12.454 8.51377 12.5072 8.54157 12.5535C8.56937 12.5998 8.60946 12.6376 8.6574 12.6625C8.70156 12.6853 8.75022 12.6981 8.7999 12.7C8.85917 12.7011 8.91716 12.6826 8.9649 12.6475L12.5649 10.2475C12.6067 10.2211 12.6412 10.1846 12.6651 10.1413C12.689 10.0981 12.7015 10.0494 12.7015 9.99999C12.7015 9.95055 12.689 9.90192 12.6651 9.85864C12.6412 9.81536 12.6067 9.77884 12.5649 9.75249ZM9.0999 11.8375V8.16249L11.8599 9.99999L9.0999 11.8375ZM17.6874 5.70999C17.6254 5.48132 17.5112 5.27016 17.3537 5.09316C17.1963 4.91615 16.9998 4.77814 16.7799 4.68999C14.2449 3.71499 10.1724 3.72999 9.9999 3.72999C9.8274 3.72999 5.7549 3.71499 3.2199 4.68999C2.99999 4.77814 2.80355 4.91615 2.64607 5.09316C2.48859 5.27016 2.37437 5.48132 2.3124 5.70999C2.1249 6.43749 1.8999 7.77249 1.8999 9.99999C1.8999 12.2275 2.1249 13.5625 2.3124 14.29C2.37437 14.5187 2.48859 14.7298 2.64607 14.9068C2.80355 15.0838 2.99999 15.2218 3.2199 15.31C5.7549 16.285 9.8274 16.27 9.9999 16.27H10.0524C10.5699 16.27 14.3724 16.24 16.7799 15.31C16.9998 15.2218 17.1963 15.0838 17.3537 14.9068C17.5112 14.7298 17.6254 14.5187 17.6874 14.29C17.8749 13.5625 18.0999 12.2275 18.0999 9.99999C18.0999 7.77249 17.8749 6.43749 17.6874 5.70999ZM17.1024 14.14C17.0664 14.2765 16.9987 14.4026 16.9049 14.5082C16.8111 14.6137 16.6938 14.6957 16.5624 14.7475C14.1324 15.685 10.0449 15.67 9.9999 15.67C9.9549 15.67 5.8674 15.685 3.4374 14.7475C3.30605 14.6957 3.18872 14.6137 3.09492 14.5082C3.00111 14.4026 2.93345 14.2765 2.8974 14.14C2.7174 13.4425 2.4999 12.16 2.4999 9.99999C2.4999 7.83999 2.7174 6.55749 2.8974 5.85999C2.93345 5.72347 3.00111 5.59735 3.09492 5.49181C3.18872 5.38628 3.30605 5.3043 3.4374 5.25249C5.8674 4.31499 9.9549 4.32999 9.9999 4.32999C10.0449 4.32999 14.1324 4.31499 16.5624 5.25249C16.6938 5.3043 16.8111 5.38628 16.9049 5.49181C16.9987 5.59735 17.0664 5.72347 17.1024 5.85999C17.2824 6.55749 17.4999 7.83999 17.4999 9.99999C17.4999 12.16 17.2824 13.4425 17.1024 14.14Z" fill="#0F805D"/>
</svg>
